<svg width="16" height="18" viewBox="0 0 16 18" fill="none" xmlns="http://www.w3.org/2000/svg">
    <path fill-rule="evenodd" clip-rule="evenodd" d="M0 7.48599C0 3.3461 3.45949 0 7.6441 0C11.8405 0 15.3 3.3461 15.3 7.48599C15.3 9.57211 14.5413 11.5089 13.2925 13.1504C11.9149 14.9612 10.2169 16.5388 8.30569 17.7772C7.86826 18.0634 7.47349 18.085 6.9934 17.7772C5.07126 16.5388 3.37328 14.9612 2.00745 13.1504C0.757785 11.5089 0 9.57211 0 7.48599ZM5.12476 7.71939C5.12476 9.10626 6.25644 10.197 7.64405 10.197C9.03257 10.197 10.1751 9.10626 10.1751 7.71939C10.1751 6.34332 9.03257 5.19946 7.64405 5.19946C6.25644 5.19946 5.12476 6.34332 5.12476 7.71939Z" fill="#30D5C8"/>
</svg>
