<svg width="25" height="27" viewBox="0 0 25 27" fill="none" xmlns="http://www.w3.org/2000/svg">
<path fill-rule="evenodd" clip-rule="evenodd" d="M6.97859 0.166687H17.8739C21.8896 0.166687 24.1256 2.48069 24.1256 6.44569V19.8747C24.1256 23.9047 21.8896 26.1667 17.8739 26.1667H6.97859C3.02659 26.1667 0.725586 23.9047 0.725586 19.8747V6.44569C0.725586 2.48069 3.02659 0.166687 6.97859 0.166687ZM7.32909 6.22473V6.21173H11.2148C11.7751 6.21173 12.2301 6.66673 12.2301 7.22443C12.2301 7.79773 11.7751 8.25273 11.2148 8.25273H7.32909C6.76879 8.25273 6.31509 7.79773 6.31509 7.23873C6.31509 6.67973 6.76879 6.22473 7.32909 6.22473ZM7.32909 14.1287H17.5211C18.0801 14.1287 18.5351 13.6737 18.5351 13.1147C18.5351 12.5557 18.0801 12.0994 17.5211 12.0994H7.32909C6.76879 12.0994 6.31509 12.5557 6.31509 13.1147C6.31509 13.6737 6.76879 14.1287 7.32909 14.1287ZM7.32959 20.0697H17.5216C18.0403 20.0177 18.4316 19.5744 18.4316 19.0557C18.4316 18.5227 18.0403 18.0807 17.5216 18.0287H7.32959C6.93959 17.9897 6.56259 18.1717 6.35459 18.5097C6.14659 18.8347 6.14659 19.2637 6.35459 19.6017C6.56259 19.9267 6.93959 20.1217 7.32959 20.0697Z" fill="#30D5C8"/>
</svg>
