<svg width="20" height="18" viewBox="0 0 20 18" fill="none" xmlns="http://www.w3.org/2000/svg">
<path fill-rule="evenodd" clip-rule="evenodd" d="M14.939 0C16.28 0 17.57 0.529999 18.519 1.48099C19.469 2.42999 20 3.70999 20 5.04999V12.95C20 15.74 17.73 18 14.939 18H5.06C2.269 18 0 15.74 0 12.95V5.04999C0 2.26001 2.259 0 5.06 0H14.939ZM16.5301 6.5401L16.6101 6.46008C16.8491 6.17007 16.8491 5.75009 16.5991 5.46008C16.4601 5.3111 16.2691 5.22009 16.0701 5.20007C15.8601 5.18909 15.6601 5.26007 15.5091 5.40009L11.0001 9.00009C10.4201 9.48108 9.58905 9.48108 9.00005 9.00009L4.50005 5.40009C4.18905 5.17007 3.75905 5.20007 3.50005 5.47009C3.23005 5.74008 3.20005 6.17007 3.42905 6.47009L3.56005 6.6001L8.11005 10.1501C8.67005 10.5901 9.34905 10.8301 10.0601 10.8301C10.7691 10.8301 11.4601 10.5901 12.0191 10.1501L16.5301 6.5401Z" fill="#30D5C8"/>
</svg>
