<svg width="12" height="20" viewBox="0 0 12 20" fill="none" xmlns="http://www.w3.org/2000/svg">
<path d="M0.443954 9.2196L9.34421 0.31951C9.55006 0.113495 9.82485 0 10.1179 0C10.4109 0 10.6857 0.113495 10.8915 0.31951L11.547 0.974789C11.9735 1.40178 11.9735 2.09576 11.547 2.52209L4.07319 9.99585L11.5552 17.4779C11.7611 17.6839 11.8748 17.9586 11.8748 18.2514C11.8748 18.5446 11.7611 18.8192 11.5552 19.0254L10.8998 19.6805C10.6938 19.8865 10.4192 20 10.1262 20C9.83315 20 9.55835 19.8865 9.3525 19.6805L0.443954 10.7723C0.237615 10.5656 0.124283 10.2897 0.124933 9.99634C0.124283 9.70187 0.237615 9.4261 0.443954 9.2196Z" fill="black"/>
</svg>
